<svg width="36" height="26" viewBox="0 0 36 26" fill="none" xmlns="http://www.w3.org/2000/svg">
<path d="M29.5216 4.14762C28.3711 3.18497 27.0736 2.46916 25.7287 1.83466C24.7217 1.35914 23.6838 0.962759 22.6272 0.615016C22.5268 0.582347 22.4285 0.543871 22.3181 0.503942C22.5003 0.144584 22.7312 -0.0252949 23.148 0.0139079C25.1728 0.20121 27.0736 0.79288 28.8775 1.72939C29.5166 2.06116 30.1213 2.44738 30.7224 2.84304C31.1154 3.10149 31.3952 3.42382 31.5982 3.85723C33.3641 7.62432 34.5935 11.5577 35.2347 15.6783C35.5102 17.4475 35.6758 19.2247 35.6744 21.0171C35.6744 21.2342 35.6235 21.4092 35.4929 21.5841C34.1086 23.4281 32.2846 24.6281 30.1328 25.3498C29.016 25.7244 27.8619 25.9022 26.6927 25.9872C26.5328 25.9988 26.3664 26.0394 26.233 25.8725C25.6104 25.0935 24.9799 24.321 24.3171 23.5036C26.4496 22.8328 28.3073 21.8077 29.6701 20.016C21.7852 24.5505 13.936 24.3653 6.11133 19.9245C6.76477 20.8168 7.60182 21.5558 8.56153 22.1576C9.34623 22.6498 10.1747 23.0513 11.0591 23.3221C11.3309 23.4056 11.3309 23.4854 11.1602 23.6931C10.5871 24.3893 10.0298 25.1 9.47103 25.8086C9.37635 25.9284 9.28311 26.0075 9.11455 25.9966C5.62861 25.7803 2.60244 24.5882 0.327968 21.7823C0.0984411 21.4992 -0.00484656 21.2037 0.000174344 20.8255C0.062577 16.3092 0.974946 11.9591 2.48122 7.7245C2.98689 6.30231 3.5643 4.91134 4.2371 3.56103C4.34326 3.34832 4.48241 3.18425 4.67177 3.04776C6.97349 1.39181 9.50905 0.343501 12.3265 0.0378647C12.6615 0.00156585 13.0574 -0.115316 13.2439 0.388511C10.4845 1.23427 7.86147 2.36099 5.49448 4.20932C5.80147 4.18682 5.98079 4.05251 6.16943 3.95959C8.502 2.80674 10.9422 1.99655 13.5172 1.63574C15.4244 1.36858 17.3431 1.22629 19.2682 1.34172C22.7685 1.55153 26.0888 2.45174 29.2111 4.07865C29.2742 4.11132 29.3423 4.136 29.4076 4.16431C29.4471 4.16214 29.4958 4.24127 29.5216 4.14762Z" fill="#FEFEFE"/>
<path d="M15.1153 14.7895C15.1035 16.002 14.6589 17.0038 13.6355 17.6747C12.3199 18.5367 10.6675 18.1686 9.71161 16.8366C8.30763 14.8801 9.32618 12.03 11.6019 11.5438C13.0824 11.2277 14.6359 12.3061 15.0262 13.9184C15.0958 14.205 15.1209 14.4944 15.1153 14.7895Z" fill="#060F20"/>
<path d="M23.4007 18.1386C22.1437 18.1344 21.2967 17.6593 20.664 16.8572C19.6855 15.6152 19.7253 13.908 20.7275 12.6816C22.0251 11.0942 24.5146 11.0907 25.8214 12.6738C27.1472 14.2795 26.741 16.6429 24.9561 17.6988C24.4381 18.0054 23.8712 18.1556 23.4007 18.1386Z" fill="#060F20"/>
</svg>
