<svg width="22" height="16" viewBox="0 0 22 16" fill="none" xmlns="http://www.w3.org/2000/svg">
<path d="M18.1672 2.55238C17.4592 1.95998 16.6607 1.51948 15.8331 1.12902C15.2133 0.836395 14.5746 0.592467 13.9245 0.378471C13.8627 0.358368 13.8022 0.33469 13.7342 0.310118C13.8463 0.0889745 13.9885 -0.0155661 14.2449 0.00855868C15.491 0.123821 16.6607 0.487926 17.7708 1.06424C18.1641 1.26841 18.5362 1.50608 18.9061 1.74956C19.148 1.90861 19.3201 2.10696 19.445 2.37368C20.5317 4.69189 21.2883 7.1124 21.6829 9.64818C21.8524 10.7369 21.9544 11.8306 21.9535 12.9336C21.9535 13.0672 21.9221 13.1749 21.8418 13.2825C20.9899 14.4173 19.8674 15.1558 18.5432 15.5998C17.856 15.8304 17.1458 15.9398 16.4263 15.9921C16.3279 15.9992 16.2255 16.0243 16.1434 15.9215C15.7602 15.4421 15.3722 14.9668 14.9644 14.4638C16.2767 14.051 17.4199 13.4201 18.2585 12.3175C13.4062 15.108 8.57603 14.994 3.76082 12.2613C4.16293 12.8103 4.67804 13.2651 5.26864 13.6355C5.75152 13.9384 6.26134 14.1854 6.80558 14.3521C6.97287 14.4034 6.97287 14.4526 6.86782 14.5804C6.51514 15.0088 6.17218 15.4462 5.82833 15.8822C5.77006 15.9559 5.71268 16.0046 5.60895 15.9979C3.46376 15.8648 1.6015 15.1312 0.201827 13.4045C0.0605791 13.2303 -0.0029825 13.0484 0.000107289 12.8157C0.0385089 10.0364 0.599967 7.35946 1.5269 4.75354C1.83809 3.87835 2.19341 3.02237 2.60745 2.1914C2.67277 2.0605 2.7584 1.95954 2.87493 1.87555C4.29138 0.856499 5.85172 0.211385 7.58553 0.0233013C7.79167 0.000963598 8.03532 -0.0709638 8.15008 0.239084C6.45202 0.759553 4.83783 1.45292 3.38122 2.59035C3.57014 2.5765 3.68048 2.49385 3.79657 2.43667C5.232 1.72722 6.73363 1.22865 8.31825 1.00661C9.49193 0.842203 10.6727 0.754639 11.8574 0.825673C14.0114 0.954785 16.0546 1.50876 17.976 2.50994C18.0149 2.53004 18.0568 2.54523 18.097 2.56265C18.1213 2.56131 18.1513 2.61001 18.1672 2.55238Z" fill="#FEFEFE"/>
<path d="M9.30348 9.10104C9.2962 9.84722 9.02262 10.4637 8.39283 10.8766C7.58322 11.407 6.56639 11.1805 5.97813 10.3608C5.11415 9.15681 5.74094 7.40288 7.14138 7.10372C8.05246 6.90917 9.00849 7.57279 9.24867 8.56496C9.29149 8.74135 9.3069 8.91946 9.30348 9.10104Z" fill="#1D273E"/>
<path d="M14.3993 11.1621C13.6258 11.1595 13.1046 10.8671 12.7152 10.3735C12.113 9.60918 12.1375 8.55861 12.7543 7.80386C13.5528 6.82703 15.0848 6.82486 15.889 7.79909C16.7049 8.7872 16.4549 10.2416 15.3565 10.8914C15.0377 11.0801 14.6889 11.1725 14.3993 11.1621Z" fill="#1D273E"/>
</svg>
